<?xml version="1.0" encoding="UTF-8"?>
<svg id="Layer_1" xmlns="http://www.w3.org/2000/svg" version="1.1" viewBox="0 0 1366 768">
  <!-- Generator: Adobe Illustrator 29.1.0, SVG Export Plug-In . SVG Version: 2.1.0 Build 142)  -->
  <defs>
    <style>
      .st0 {
        fill: #9c8b7c;
      }

      .st1 {
        stroke: #9c8f7c;
        stroke-miterlimit: 10;
      }
    </style>
  </defs>
  <path class="st0" d="M1365.5,589.5c-110.3-2.2-222.1-10.3-332.4-24-130-16.1-216.8-34.7-293.5-51.2-81.5-17.5-145.9-31.3-230.6-34.8-13.2-.6-26.6-.8-39.8-.8-152.2,0-309.9,37.2-468.7,110.5V.5h1365v589Z"/>
  <path class="st1" d="M1365,1v588c-110.1-2.3-221.8-10.3-331.9-24-130-16.1-216.8-34.7-293.4-51.2-81.5-17.4-145.9-31.3-230.7-34.8-13.2-.6-26.6-.8-39.8-.8-152.1,0-309.6,37.1-468.2,110.3V1h1364M1366,0H0v590c192-88.8,351-110.8,469.2-110.8s27.1.3,39.8.8c163.4,6.8,254.2,52.6,524,86,139.6,17.3,255.4,22.4,333,24V0h0Z"/>
</svg>